<?xml version="1.0" standalone="no"?><!DOCTYPE svg PUBLIC "-//W3C//DTD SVG 1.1//EN" "http://www.w3.org/Graphics/SVG/1.1/DTD/svg11.dtd"><svg t="1532434825664" class="icon" style="" viewBox="0 0 1024 1024" version="1.1" xmlns="http://www.w3.org/2000/svg" p-id="1818" xmlns:xlink="http://www.w3.org/1999/xlink" width="200" height="200"><defs><style type="text/css"></style></defs><path d="M208 778.208 208 992l592 0L800 778.208C800 729.2 766.848 688 717.84 688l-101.616 0c-14.32 16-31.44 26.96-50.592 35.264l-64.368 109.68-65.936-108.4C414.928 716.176 396.64 704 381.392 688l-92.448 0C239.936 688 208 729.2 208 778.208z" p-id="1819"></path><path d="M333.312 240 629.104 240 510.784 32 451.632 32Z" p-id="1820"></path><path d="M104.496 348.192l23.92 23.696 61.2-58.88 61.184 59.296 61.232-59.088 61.2 59.2 61.232-59.136 61.264 59.168 61.248-59.152 61.264 59.168 61.232-59.152 61.248 59.152 61.264-59.152 61.376 59.168 24.16-24.384C895.28 314.8 895.328 288 895.328 288L96.672 288C96.672 288 96.72 314.864 104.496 348.192z" p-id="1821"></path><path d="M157.936 448c26.064 32 63.216 48 116.208 48 133.104 0 325.376 0 443.696 0 52.992 0 90.144-16 116.224-48L157.936 448z" p-id="1822"></path><path d="M863.264 410.768l-61.264-57.552-61.28 59.936-61.248-58.784-61.232 59.344-61.264-59.072-61.248 59.2-61.264-59.136-61.232 59.184-61.2-59.152-61.248 59.168-61.168-59.152-60.976 55.888C133.328 419.024 138.672 432 144.8 432l702.4 0C853.296 432 858.624 419.104 863.264 410.768z" p-id="1823"></path><path d="M400.912 689.472c6.64 5.488 13.792 10.368 21.392 14.656 22.32 12.608 48.304 19.856 76.16 19.856 29.584 0 57.072-8.128 80.272-22.208 6.08-3.696 11.856-7.808 17.28-12.304 31.536-26.096 51.584-64.368 51.584-109.392 0-21.024-4.4-52.08-12.256-52.08l-6.24 0-267.52 0c-7.856 16-12.256 31.056-12.256 52.08C349.328 625.104 369.376 663.392 400.912 689.472z" p-id="1824"></path></svg>