<?xml version="1.0" standalone="no"?><!DOCTYPE svg PUBLIC "-//W3C//DTD SVG 1.1//EN" "http://www.w3.org/Graphics/SVG/1.1/DTD/svg11.dtd"><svg t="1532434836948" class="icon" style="" viewBox="0 0 1024 1024" version="1.1" xmlns="http://www.w3.org/2000/svg" p-id="2147" xmlns:xlink="http://www.w3.org/1999/xlink" width="200" height="200"><defs><style type="text/css"></style></defs><path d="M508 842.3c-40 0-78.8-7.8-115.4-23.3-35.3-14.9-67-36.3-94.2-63.5-27.2-27.2-48.6-58.9-63.5-94.2-15.5-36.6-23.3-75.4-23.3-115.4s7.8-78.8 23.3-115.4c14.9-35.3 36.3-67 63.5-94.2 27.2-27.2 58.9-48.6 94.2-63.5 36.6-15.5 75.4-23.3 115.4-23.3s78.8 7.8 115.4 23.3c35.3 14.9 67 36.3 94.2 63.5s48.6 58.9 63.5 94.2c15.5 36.6 23.3 75.4 23.3 115.4s-7.8 78.8-23.3 115.4c-14.9 35.3-36.3 67-63.5 94.2s-58.9 48.6-94.2 63.5c-36.5 15.4-75.3 23.3-115.4 23.3z" fill="#53BAF9" p-id="2148"></path><path d="M508 255.2c160.5 0 290.6 130.1 290.6 290.6S668.6 836.5 508 836.5 217.4 706.4 217.4 545.8 347.5 255.2 508 255.2m0-11.6c-40.8 0-80.4 8-117.7 23.8-36 15.2-68.3 37-96.1 64.8-27.8 27.8-49.5 60.1-64.8 96.1-15.8 37.3-23.8 76.9-23.8 117.7s8 80.4 23.8 117.7c15.2 36 37 68.3 64.8 96.1 27.8 27.8 60.1 49.5 96.1 64.8 37.3 15.8 76.9 23.8 117.7 23.8s80.4-8 117.7-23.8c36-15.2 68.3-37 96.1-64.8 27.8-27.8 49.5-60.1 64.8-96.1 15.8-37.3 23.8-76.9 23.8-117.7s-8-80.4-23.8-117.7c-15.2-36-37-68.3-64.8-96.1-27.8-27.8-60.1-49.5-96.1-64.8-37.3-15.8-76.9-23.8-117.7-23.8z" fill="#6D4120" p-id="2149"></path><path d="M787.4 464.9c-8.2 153.2-135 274.9-290.2 274.9-132.6 0-244.5-88.8-279.4-210.3-0.3 5.2-0.4 10.5-0.4 15.8 0 160.5 130.1 290.6 290.6 290.6s290.6-130.1 290.6-290.6c0-27.9-3.9-54.8-11.2-80.4z" fill="#54B1F7" p-id="2150"></path><path d="M830.8 528.5c-1 0-2-0.3-3-0.8-39.1-23.2-86-41.5-139.2-54.4-55.2-13.4-114.3-20.2-175.6-20.2s-120.3 6.8-175.6 20.2c-53.2 12.9-100.1 31.2-139.2 54.4-0.9 0.5-1.9 0.8-3 0.8-1 0-2-0.3-2.9-0.8-1.8-1-2.9-3-2.9-5.1 0.4-83.9 38.1-171.6 103.2-240.8 30.6-32.5 66.4-59.5 103.4-78.1 39.2-19.6 78.6-29.6 116.9-29.6 70.6 0 151.5 40.2 216.4 107.6C797 352 836.1 439.8 836.5 522.6c0 2.1-1.1 4-2.9 5.1-0.8 0.5-1.8 0.8-2.8 0.8z" fill="#F995AD" p-id="2151"></path><path d="M513 180c143.1 0 316.8 168 317.7 342.7-78.1-46.3-191.5-75.4-317.7-75.4s-239.7 29.1-317.7 75.4C196.2 348 359.5 180 513 180m0-11.6c-19.8 0-40.2 2.7-60.6 7.9-19.7 5.1-39.5 12.6-58.9 22.3-37.6 18.8-74 46.2-105.1 79.3-66.2 70.2-104.3 159.4-104.8 244.8 0 4.2 2.2 8.1 5.8 10.1 1.8 1 3.8 1.5 5.8 1.5s4.1-0.5 5.9-1.6c38.6-22.9 84.9-41 137.6-53.7 54.8-13.3 113.4-20 174.2-20s119.4 6.7 174.2 20c52.7 12.8 99 30.9 137.6 53.7 1.8 1.1 3.9 1.6 5.9 1.6 2 0 4-0.5 5.8-1.5 3.6-2.1 5.9-6 5.8-10.1-0.2-43.7-10.7-88.1-31-132.1-18.6-40.2-45.5-79.2-77.8-112.8-31.6-32.8-68-60.2-105.4-79.2-19.1-9.7-38.5-17.2-57.4-22.3-19.6-5.2-39-7.9-57.6-7.9z" fill="#6D4120" p-id="2152"></path><path d="M769.2 492.7c22.1 8.9 42.5 18.8 61 29.8-0.9-174.7-174.7-342.7-317.7-342.7-10.1 0-20.3 0.7-30.5 2.2 128.2 18.8 269.7 158.7 287.2 310.7z" fill="#F978AA" p-id="2153"></path><path d="M803.5 620.2c-1 0-2-0.3-2.9-0.8L257.5 304.1c-1.5-0.9-2.6-2.4-2.8-4.2-0.3-1.8 0.3-3.5 1.5-4.8l38.8-40.9c1.1-1.2 2.7-1.8 4.2-1.8 1 0 2 0.3 2.9 0.8l521.2 299.1c2.3 1.3 3.4 4.1 2.7 6.7l-16.9 57c-0.5 1.7-1.8 3.1-3.4 3.8-0.7 0.3-1.5 0.4-2.2 0.4z" fill="#1D57FC" p-id="2154"></path><path d="M299.1 258.2l521.2 299.1-16.9 57.2-543-315.5 38.7-40.8m0-11.7c-3.1 0-6.2 1.2-8.4 3.6L251.9 291c-2.4 2.6-3.6 6.1-3.1 9.6s2.6 6.6 5.7 8.4l543.1 315.4c1.8 1 3.8 1.6 5.8 1.6 1.5 0 2.9-0.3 4.3-0.8 3.3-1.3 5.8-4.1 6.8-7.5l16.9-57.2c1.5-5.2-0.7-10.7-5.4-13.4l-521.1-299c-1.8-1.1-3.8-1.6-5.8-1.6z" fill="#6D4120" p-id="2155"></path><path d="M299 258.6l-38.8 40.9 2.4 1.4 26.5-28L810.3 572l-11.8 40.1 4.8 2.8 16.9-57.2z" fill="#0346DB" p-id="2156"></path><path d="M656.9 579.1c-17.1 0-34.2-4.7-49.7-13.7-42.6-24.8-59.9-74.8-38.5-111.6 1.2-2.1 2.5-4.1 3.9-6 0.5-1.4 1.2-2.8 2-4.2l19.8-34.1c5-8.6 14.3-13.9 24.2-13.9 4.9 0 9.8 1.3 14 3.8l106.1 61.7c13.3 7.7 17.9 24.9 10.1 38.2L729 533.4c-0.8 1.3-1.7 2.6-2.6 3.8-1 2.2-2.1 4.3-3.3 6.4-12.8 22.2-37.6 35.5-66.2 35.5z" fill="#1D57FC" p-id="2157"></path><path d="M618.6 401.4c3.8 0 7.6 1 11.1 3l106.1 61.7c10.6 6.2 14.2 19.7 8 30.3L724 530.5c-0.8 1.3-1.6 2.5-2.6 3.6-1 2.2-2.1 4.4-3.3 6.6-12.3 21.2-35.8 32.7-61.3 32.7-15.5 0-31.7-4.2-46.8-12.9-39.9-23.2-56.2-69.6-36.4-103.7 1.2-2.1 2.6-4.2 4.1-6.1 0.5-1.4 1.1-2.7 1.8-4l19.8-34.1c4.3-7.3 11.7-11.2 19.3-11.2m0-11.6c-12 0-23.2 6.4-29.2 16.8l-19.8 34.1c-0.8 1.4-1.5 2.8-2.1 4.3-1.4 1.9-2.6 3.9-3.8 5.9-11.3 19.5-13.1 42.8-5.1 65.6 7.8 22.2 24 41.4 45.7 54 16.3 9.5 34.5 14.5 52.6 14.5 30.7 0 57.4-14.4 71.4-38.4 1.2-2 2.2-4.1 3.2-6.2 1-1.2 1.9-2.6 2.7-3.9l19.8-34.1c9.4-16.1 3.9-36.8-12.2-46.2l-106.1-61.7c-5.3-3.1-11.1-4.7-17.1-4.7z" fill="#6D4120" p-id="2158"></path><path d="M735.9 466.1l-33.3-19.3c8.4 6.8 10.8 18.8 5.2 28.4l-19.8 34c-0.8 1.3-1.6 2.5-2.6 3.6-1 2.2-2.1 4.4-3.3 6.6-16.8 28.9-54.1 39.6-89.4 28.1 5.2 4.8 11 9.2 17.4 12.9 39.9 23.2 88.3 14.3 108.1-19.7 1.2-2.1 2.3-4.3 3.3-6.6 1-1.1 1.8-2.3 2.6-3.6l19.8-34.1c6.2-10.6 2.6-24.2-8-30.3z" fill="#0346DB" p-id="2159"></path><path d="M397.8 499.5m-51.1 0a51.1 51.1 0 1 0 102.2 0 51.1 51.1 0 1 0-102.2 0Z" fill="#FFFFFF" p-id="2160"></path><path d="M397.8 556.4c-31.4 0-56.9-25.5-56.9-56.9s25.5-56.9 56.9-56.9 56.9 25.5 56.9 56.9-25.5 56.9-56.9 56.9z m0-102.1c-25 0-45.3 20.3-45.3 45.3s20.3 45.3 45.3 45.3c25 0 45.3-20.3 45.3-45.3s-20.3-45.3-45.3-45.3z" fill="#6D4120" p-id="2161"></path><path d="M518.6 685.5c-26 0-47.1-21.1-47.1-47.1s21.1-47.1 47.1-47.1 47.1 21.1 47.1 47.1c0 25.9-21.1 47.1-47.1 47.1z" fill="#FFFFFF" p-id="2162"></path><path d="M518.6 597.1c22.8 0 41.3 18.5 41.3 41.3 0 22.8-18.5 41.3-41.3 41.3s-41.3-18.5-41.3-41.3c0.1-22.8 18.5-41.3 41.3-41.3m0-11.6c-29.2 0-52.9 23.7-52.9 52.9s23.7 52.9 52.9 52.9 52.9-23.7 52.9-52.9-23.7-52.9-52.9-52.9z" fill="#6D4120" p-id="2163"></path><path d="M518.6 620.8c18.7 0 34.5 12.5 39.6 29.5 1.1-3.7 1.7-7.7 1.7-11.7 0-22.8-18.5-41.3-41.3-41.3s-41.3 18.5-41.3 41.3c0 4.1 0.6 8 1.7 11.7 5.1-17 20.9-29.5 39.6-29.5z" fill="#CADBFC" p-id="2164"></path><path d="M397.8 499.5m-23.1 0a23.1 23.1 0 1 0 46.2 0 23.1 23.1 0 1 0-46.2 0Z" fill="#FFFFFF" p-id="2165"></path><path d="M397.8 528.5c-16 0-29-13-29-28.9 0-16 13-28.9 29-28.9s28.9 13 28.9 28.9c0.1 15.9-12.9 28.9-28.9 28.9z m0-46.3c-9.6 0-17.3 7.8-17.3 17.3s7.8 17.3 17.3 17.3c9.6 0 17.3-7.8 17.3-17.3s-7.7-17.3-17.3-17.3z" fill="#6D4120" p-id="2166"></path><path d="M417.4 751.8v74.6c0 13.1 10.7 23.8 23.8 23.8 13.1 0 23.8-10.7 23.8-23.8V698.3c-21 12.3-37.8 31-47.6 53.5z" fill="#FFFFFF" p-id="2167"></path><path d="M441.2 856c-16.3 0-29.6-13.3-29.6-29.6v-74.6c0-0.8 0.2-1.6 0.5-2.3 10.2-23.4 27.9-43.3 49.9-56.2 1.8-1 4-1.1 5.8 0 1.8 1 2.9 3 2.9 5v128.1c0.1 16.3-13.2 29.6-29.5 29.6z m-18-103v73.3c0 9.9 8.1 18 18 18s18-8.1 18-18V709c-15.6 11.2-28.1 26.5-36 44z" fill="#6D4120" p-id="2168"></path><path d="M471.1 695.4v119.1c0 13.1 10.7 23.8 23.8 23.8 13.1 0 23.8-10.7 23.8-23.8V683.2c-17.1 0.6-33.2 4.9-47.6 12.2z" fill="#FFFFFF" p-id="2169"></path><path d="M494.9 844.1c-16.3 0-29.6-13.3-29.6-29.6V695.4c0-2.2 1.2-4.2 3.2-5.2 15.6-7.9 32.4-12.2 50-12.8 1.6-0.1 3.1 0.5 4.2 1.6s1.8 2.6 1.8 4.2v131.3c-0.1 16.3-13.3 29.6-29.6 29.6z m-18-145.1v115.5c0 9.9 8.1 18 18 18s18-8.1 18-18V689.3c-12.6 1.2-24.6 4.4-36 9.7z" fill="#6D4120" p-id="2170"></path><path d="M628 751.8v74.6c0 13.1-10.7 23.8-23.8 23.8-13.1 0-23.8-10.7-23.8-23.8V698.3c21.1 12.3 37.9 31 47.6 53.5z" fill="#FFFFFF" p-id="2171"></path><path d="M604.3 856c-16.3 0-29.6-13.3-29.6-29.6V698.3c0-2.1 1.1-4 2.9-5 1.8-1 4-1 5.8 0 22 12.9 39.8 32.8 49.9 56.2 0.3 0.7 0.5 1.5 0.5 2.3v74.6c0 16.3-13.2 29.6-29.5 29.6z m-18-147v117.4c0 9.9 8.1 18 18 18s18-8.1 18-18V753c-7.9-17.5-20.5-32.8-36-44z" fill="#6D4120" p-id="2172"></path><path d="M574.4 695.4v119.1c0 13.1-10.7 23.8-23.8 23.8-13.1 0-23.8-10.7-23.8-23.8V683.2c17.1 0.6 33.2 4.9 47.6 12.2z" fill="#FFFFFF" p-id="2173"></path><path d="M550.6 844.1c-16.3 0-29.6-13.3-29.6-29.6V683.2c0-1.6 0.6-3.1 1.8-4.2 1.1-1.1 2.6-1.7 4.2-1.6 17.6 0.6 34.4 5 50 12.8 2 1 3.2 3 3.2 5.2v119.1c0 16.3-13.3 29.6-29.6 29.6z m-18-154.8v125.2c0 9.9 8.1 18 18 18s18-8.1 18-18V699c-11.4-5.3-23.5-8.5-36-9.7z" fill="#6D4120" p-id="2174"></path><path d="M397.8 448.4c-28.2 0-51.1 22.9-51.1 51.1h102.2c0-28.2-22.9-51.1-51.1-51.1z" fill="#729CFC" p-id="2175"></path><path d="M448.9 505.3H346.7c-3.2 0-5.8-2.6-5.8-5.8 0-31.4 25.5-56.9 56.9-56.9s56.9 25.5 56.9 56.9c0 3.2-2.6 5.8-5.8 5.8z m-96-11.6h89.8c-2.9-22.2-21.9-39.5-44.9-39.5-23 0.1-42 17.3-44.9 39.5z" fill="#6D4120" p-id="2176"></path><path d="M548.6 242.1h-50.2c-3.2 0-5.8-2.6-5.8-5.8 0-3.2 2.6-5.8 5.8-5.8h50.2c3.2 0 5.8 2.6 5.8 5.8 0 3.2-2.6 5.8-5.8 5.8z" fill="#FCFCFC" p-id="2177"></path><path d="M523.5 267.2c-3.2 0-5.8-2.6-5.8-5.8v-50.2c0-3.2 2.6-5.8 5.8-5.8 3.2 0 5.8 2.6 5.8 5.8v50.2c0 3.2-2.6 5.8-5.8 5.8z" fill="#FCFCFC" p-id="2178"></path><path d="M504.7 258.8c-1.5 0-3-0.6-4.1-1.7-2.3-2.3-2.3-5.9 0-8.2l35.5-35.5c2.3-2.3 5.9-2.3 8.2 0 2.3 2.3 2.3 5.9 0 8.2l-35.5 35.5c-1.1 1.2-2.6 1.7-4.1 1.7z" fill="#FCFCFC" p-id="2179"></path><path d="M540.2 258.9c-1.5 0-3-0.6-4.1-1.7l-35.5-35.5c-2.3-2.3-2.3-5.9 0-8.2 2.3-2.3 5.9-2.3 8.2 0l35.5 35.5c2.3 2.3 2.3 5.9 0 8.2-1.1 1.1-2.6 1.7-4.1 1.7z" fill="#FCFCFC" p-id="2180"></path><path d="M649.6 295h-50.2c-3.2 0-5.8-2.6-5.8-5.8 0-3.2 2.6-5.8 5.8-5.8h50.2c3.2 0 5.8 2.6 5.8 5.8 0.1 3.2-2.5 5.8-5.8 5.8z" fill="#FCFCFC" p-id="2181"></path><path d="M624.5 320.1c-3.2 0-5.8-2.6-5.8-5.8v-50.2c0-3.2 2.6-5.8 5.8-5.8 3.2 0 5.8 2.6 5.8 5.8v50.2c0 3.2-2.6 5.8-5.8 5.8z" fill="#FCFCFC" p-id="2182"></path><path d="M605.7 311.7c-1.5 0-3-0.6-4.1-1.7-2.3-2.3-2.3-5.9 0-8.2l35.5-35.5c2.3-2.3 5.9-2.3 8.2 0 2.3 2.3 2.3 5.9 0 8.2L609.8 310c-1.1 1.1-2.6 1.7-4.1 1.7z" fill="#FCFCFC" p-id="2183"></path><path d="M641.2 311.7c-1.5 0-3-0.6-4.1-1.7l-35.5-35.5c-2.3-2.3-2.3-5.9 0-8.2 2.3-2.3 5.9-2.3 8.2 0l35.5 35.5c2.3 2.3 2.3 5.9 0 8.2-1.1 1.2-2.6 1.7-4.1 1.7z" fill="#FCFCFC" p-id="2184"></path><path d="M735.6 395h-50.2c-3.2 0-5.8-2.6-5.8-5.8 0-3.2 2.6-5.8 5.8-5.8h50.2c3.2 0 5.8 2.6 5.8 5.8 0 3.2-2.6 5.8-5.8 5.8z" fill="#FCFCFC" p-id="2185"></path><path d="M710.4 420.1c-3.2 0-5.8-2.6-5.8-5.8v-50.2c0-3.2 2.6-5.8 5.8-5.8 3.2 0 5.8 2.6 5.8 5.8v50.2c0 3.2-2.6 5.8-5.8 5.8z" fill="#FCFCFC" p-id="2186"></path><path d="M691.6 411.7c-1.5 0-3-0.6-4.1-1.7-2.3-2.3-2.3-5.9 0-8.2l35.5-35.5c2.3-2.3 5.9-2.3 8.2 0 2.3 2.3 2.3 5.9 0 8.2L695.7 410c-1.1 1.1-2.6 1.7-4.1 1.7z" fill="#FCFCFC" p-id="2187"></path><path d="M727.2 411.7c-1.5 0-3-0.6-4.1-1.7l-35.5-35.5c-2.3-2.3-2.3-5.9 0-8.2 2.3-2.3 5.9-2.3 8.2 0l35.5 35.5c2.3 2.3 2.3 5.9 0 8.2-1.2 1.1-2.7 1.7-4.1 1.7z" fill="#FCFCFC" p-id="2188"></path><path d="M432.8 264h-50.2c-3.2 0-5.8-2.6-5.8-5.8 0-3.2 2.6-5.8 5.8-5.8h50.2c3.2 0 5.8 2.6 5.8 5.8 0 3.2-2.6 5.8-5.8 5.8z" fill="#FCFCFC" p-id="2189"></path><path d="M407.6 289.1c-3.2 0-5.8-2.6-5.8-5.8v-50.2c0-3.2 2.6-5.8 5.8-5.8 3.2 0 5.8 2.6 5.8 5.8v50.2c0 3.2-2.6 5.8-5.8 5.8z" fill="#FCFCFC" p-id="2190"></path><path d="M388.8 280.7c-1.5 0-3-0.6-4.1-1.7-2.3-2.3-2.3-5.9 0-8.2l35.5-35.5c2.3-2.3 5.9-2.3 8.2 0 2.3 2.3 2.3 5.9 0 8.2L392.9 279c-1.1 1.1-2.6 1.7-4.1 1.7z" fill="#FCFCFC" p-id="2191"></path><path d="M424.4 280.7c-1.5 0-3-0.6-4.1-1.7l-35.5-35.5c-2.3-2.3-2.3-5.9 0-8.2 2.3-2.3 5.9-2.3 8.2 0l35.5 35.5c2.3 2.3 2.3 5.9 0 8.2-1.2 1.1-2.7 1.7-4.1 1.7z" fill="#FCFCFC" p-id="2192"></path><path d="M349.7 407.2h-50.2c-3.2 0-5.8-2.6-5.8-5.8 0-3.2 2.6-5.8 5.8-5.8h50.2c3.2 0 5.8 2.6 5.8 5.8 0 3.2-2.6 5.8-5.8 5.8z" fill="#FCFCFC" p-id="2193"></path><path d="M324.6 432.3c-3.2 0-5.8-2.6-5.8-5.8v-50.2c0-3.2 2.6-5.8 5.8-5.8 3.2 0 5.8 2.6 5.8 5.8v50.2c0 3.2-2.6 5.8-5.8 5.8z" fill="#FCFCFC" p-id="2194"></path><path d="M305.8 423.9c-1.5 0-3-0.6-4.1-1.7-2.3-2.3-2.3-5.9 0-8.2l35.5-35.5c2.3-2.3 5.9-2.3 8.2 0 2.3 2.3 2.3 5.9 0 8.2l-35.5 35.5c-1.1 1.1-2.6 1.7-4.1 1.7z" fill="#FCFCFC" p-id="2195"></path><path d="M341.3 423.9c-1.5 0-3-0.6-4.1-1.7l-35.5-35.5c-2.3-2.3-2.3-5.9 0-8.2 2.3-2.3 5.9-2.3 8.2 0l35.5 35.5c2.3 2.3 2.3 5.9 0 8.2-1.1 1.2-2.6 1.7-4.1 1.7z" fill="#FCFCFC" p-id="2196"></path><path d="M551.9 345.3h-50.2c-3.2 0-5.8-2.6-5.8-5.8 0-3.2 2.6-5.8 5.8-5.8h50.2c3.2 0 5.8 2.6 5.8 5.8 0 3.2-2.6 5.8-5.8 5.8z" fill="#FCFCFC" p-id="2197"></path><path d="M526.8 370.4c-3.2 0-5.8-2.6-5.8-5.8v-50.2c0-3.2 2.6-5.8 5.8-5.8 3.2 0 5.8 2.6 5.8 5.8v50.2c0 3.2-2.6 5.8-5.8 5.8z" fill="#FCFCFC" p-id="2198"></path><path d="M508 362c-1.5 0-3-0.6-4.1-1.7-2.3-2.3-2.3-5.9 0-8.2l35.5-35.5c2.3-2.3 5.9-2.3 8.2 0 2.3 2.3 2.3 5.9 0 8.2l-35.5 35.5c-1.1 1.1-2.6 1.7-4.1 1.7z" fill="#FCFCFC" p-id="2199"></path><path d="M543.5 362c-1.5 0-3-0.6-4.1-1.7l-35.5-35.5c-2.3-2.3-2.3-5.9 0-8.2 2.3-2.3 5.9-2.3 8.2 0l35.5 35.5c2.3 2.3 2.3 5.9 0 8.2-1.1 1.1-2.6 1.7-4.1 1.7z" fill="#FCFCFC" p-id="2200"></path><path d="M266.7 457.8h-50.2c-3.2 0-5.8-2.6-5.8-5.8 0-3.2 2.6-5.8 5.8-5.8h50.2c3.2 0 5.8 2.6 5.8 5.8 0 3.2-2.6 5.8-5.8 5.8z" fill="#FCFCFC" p-id="2201"></path><path d="M241.6 482.9c-3.2 0-5.8-2.6-5.8-5.8v-50.2c0-3.2 2.6-5.8 5.8-5.8 3.2 0 5.8 2.6 5.8 5.8v50.2c0 3.2-2.6 5.8-5.8 5.8z" fill="#FCFCFC" p-id="2202"></path><path d="M222.8 474.5c-1.5 0-3-0.6-4.1-1.7-2.3-2.3-2.3-5.9 0-8.2l35.5-35.5c2.3-2.3 5.9-2.3 8.2 0 2.3 2.3 2.3 5.9 0 8.2l-35.5 35.5c-1.1 1.2-2.6 1.7-4.1 1.7z" fill="#FCFCFC" p-id="2203"></path><path d="M258.3 474.5c-1.5 0-3-0.6-4.1-1.7l-35.5-35.5c-2.3-2.3-2.3-5.9 0-8.2 2.3-2.3 5.9-2.3 8.2 0l35.5 35.5c2.3 2.3 2.3 5.9 0 8.2-1.1 1.2-2.6 1.7-4.1 1.7z" fill="#FCFCFC" p-id="2204"></path><path d="M299.5 588.5l89.3 49.9" fill="#FFFFFF" p-id="2205"></path><path d="M388.8 644.2c-1 0-1.9-0.2-2.8-0.7l-89.3-49.8c-2.8-1.6-3.8-5.1-2.2-7.9 1.6-2.8 5.1-3.8 7.9-2.2l89.3 49.8c2.8 1.6 3.8 5.1 2.2 7.9-1.1 1.8-3 2.9-5.1 2.9z" fill="#6D4120" p-id="2206"></path><path d="M330.5 570.5l-15.1 46.9" fill="#FFFFFF" p-id="2207"></path><path d="M315.4 623.2c-0.6 0-1.2-0.1-1.8-0.3-3.1-1-4.7-4.3-3.7-7.3l15.1-46.9c1-3.1 4.3-4.7 7.3-3.7 3.1 1 4.7 4.3 3.7 7.3l-15.1 46.9c-0.8 2.4-3.1 4-5.5 4z" fill="#6D4120" p-id="2208"></path><path d="M346.7 594v42.6" fill="#FFFFFF" p-id="2209"></path><path d="M346.7 642.4c-3.2 0-5.8-2.6-5.8-5.8V594c0-3.2 2.6-5.8 5.8-5.8 3.2 0 5.8 2.6 5.8 5.8v42.6c0 3.2-2.6 5.8-5.8 5.8z" fill="#6D4120" p-id="2210"></path></svg>